<?xml version="1.0" encoding="utf-8"?>
<svg width="32" height="32" viewBox="0 0 400 400" version="1.1" xmlns="http://www.w3.org/2000/svg">
  <g>
    <path d="M 283.019 34.049 C 285.106 33.436 295.841 29.673 303.442 34.625 C 311.043 39.577 310.705 46.872 310.704 46.318 C 310.697 42.828 310.363 205.484 309.587 207.174 C 309.633 216.653 302.729 223.447 298.992 226.696 C 288.256 236.032 271.692 238.718 265.434 238.486 C 250.062 237.916 242.849 233.498 237.9 230.79 C 233.495 228.38 229.478 223.727 227.033 220.657 C 224.064 216.93 222.306 213.078 220.897 206.368 C 219.751 200.911 220.951 194.487 220.951 193.983 C 220.951 193.481 223.1 182.379 235.187 172.753 C 237.521 170.894 242.168 168.471 243.879 167.662 C 246.714 166.322 251.102 164.563 257.161 163.864 C 261.673 163.343 269.418 163.715 271.236 163.947 C 273.729 164.265 278.583 164.807 279.008 165.267 C 278.988 163.637 278.42 102.737 278.42 102.737 L 278.042 102.216 C 278.048 102.221 275.627 102.964 273.444 103.725 C 270.623 104.708 177.1 132.148 172.807 133.393 C 171.794 133.687 166.342 135.242 165.151 135.621 C 164.687 136.034 164.477 135.932 164.486 136.379 C 164.54 139.086 164.064 230.508 164.035 231.855 C 163.895 238.395 161.989 246.33 157.404 251.414 C 152.726 256.6 146.802 260.755 138.583 264.14 C 129.815 267.751 121.164 267.865 115.459 267.482 C 106.256 266.389 104.312 266.924 93.316 261.431 C 81.767 255.662 74.763 241.91 74.516 230.198 C 74.359 222.753 76.654 215.469 81.359 209.363 C 86.064 203.257 88.786 200.757 94.491 197.557 C 103.524 192.491 114.79 192.437 118.419 192.622 C 123.974 192.905 132.536 194.717 132.536 194.717 C 132.536 194.717 133.758 90.072 133.758 89.485 C 133.758 89.015 133.877 83.873 137.177 79.868 C 140.477 75.863 145.246 75.104 146.176 74.762 C 148.834 73.779 282.486 34.205 283.019 34.049 Z" stroke="none" fill-rule="evenodd" style=""/>
    <path d="M 92.216 357.666 C 95.781 358.194 98.558 359.151 102.246 356.95 C 103.063 356.463 106.466 352.471 106.374 348.572 C 106.299 345.378 104.367 340.26 99.381 339.251 C 98.728 339.119 88.847 337.699 86.656 337.364 C 85.051 337.119 83.223 336.78 82.251 336.799 C 89.776 331.897 102.351 323.849 114.611 318.336 C 133.323 309.922 151.181 304.307 171.112 299.076 C 190.403 294.013 207.568 292.492 233.65 294.141 C 245.81 294.91 255.669 296.683 266.805 299.182 C 279.386 302.005 289.878 305.713 303.566 311.594 C 324.985 319.898 344.102 333.099 354.537 340.21 C 358.787 343.215 365.24 343.206 368.16 339.443 C 371.08 335.68 371.327 330.548 368.646 327.457 C 367.494 326.137 346.828 313.195 340.555 309.354 C 335.742 306.407 312.853 295.336 301.589 291.046 C 296.303 289.068 274.005 281.813 261.366 279.53 C 244.531 276.49 229.432 274.728 220.589 274.615 C 195.393 274.294 177.389 277.055 160.726 281.504 C 135.868 288.141 120.731 294.057 100.745 303.893 C 82.693 312.777 75.341 320.007 70.234 323.54 C 69.896 323.66 69.496 323.553 69.118 323.474 C 69.036 322.895 67.426 312.763 66.047 306.791 C 65.753 305.527 65.712 305.272 65.386 304.517 C 63.125 299.279 57.705 298.265 54.698 299.167 C 50.204 300.515 47.019 302.814 47.669 310.089 C 47.907 312.752 48.168 312.849 48.509 314.737 C 48.819 316.449 54.609 342.288 55.323 344.728 C 56.838 349.905 55.768 351.182 64.09 352.66 C 65.152 352.849 91.202 357.516 92.216 357.666 Z M 171.676 280.627 Z" stroke="none" fill-rule="evenodd" style="" transform="matrix(-0.983427, 0.181302, -0.181302, -0.983427, 472.281591, 590.539205)"/>
  </g>
</svg>
